<?xml version="1.0" standalone="no"?>
<!DOCTYPE svg PUBLIC "-//W3C//DTD SVG 20010904//EN"
 "http://www.w3.org/TR/2001/REC-SVG-20010904/DTD/svg10.dtd">
<svg version="1.0" xmlns="http://www.w3.org/2000/svg"
 width="172.000000pt" height="41.000000pt" viewBox="0 0 172.000000 41.000000"
 preserveAspectRatio="xMidYMid meet">

<g transform="translate(0.000000,41.000000) scale(0.100000,-0.100000)"
fill="#000000" stroke="none">
<path d="M1261 391 c-17 -17 -21 -32 -19 -64 3 -35 7 -43 26 -45 17 -3 22 -9
19 -20 -33 -116 -33 -113 -8 -133 43 -35 126 -19 137 26 3 14 1 46 -6 71 -12
42 -12 46 9 60 14 10 21 26 21 48 0 54 -19 69 -93 74 -56 4 -68 1 -86 -17z
m143 -17 c13 -33 6 -62 -15 -67 -18 -5 -21 -11 -15 -39 20 -110 21 -107 -8
-118 -37 -14 -59 -13 -81 3 -17 13 -17 16 -1 62 22 67 21 83 -9 91 -25 6 -33
33 -19 68 9 23 139 23 148 0z"/>
<path d="M460 380 c-21 -21 -26 -55 -10 -65 6 -4 9 -41 8 -92 -3 -93 8 -113
62 -113 32 0 50 17 50 48 0 21 3 23 30 17 19 -4 36 -2 45 5 18 15 20 61 4 77
-9 9 -8 16 5 28 19 19 19 25 6 60 -20 52 -158 77 -200 35z m151 -11 c20 -10
34 -44 24 -58 -3 -5 -20 -7 -39 -4 -18 3 -36 1 -40 -5 -12 -20 6 -41 37 -44
27 -2 32 -7 32 -28 0 -22 -4 -25 -40 -25 -35 0 -40 -3 -43 -25 -5 -35 -16 -44
-48 -36 l-27 7 6 82 c4 65 2 85 -10 99 -13 15 -12 19 7 38 19 19 29 21 73 16
28 -4 58 -11 68 -17z"/>
<path d="M735 380 c-22 -24 -40 -118 -31 -164 10 -50 54 -96 94 -96 39 0 93
38 114 80 22 43 23 131 3 169 -14 28 -17 29 -89 29 -59 0 -78 -4 -91 -18z m54
1 c12 -8 12 -16 1 -55 -15 -53 -9 -76 20 -76 27 0 33 18 21 69 -7 33 -6 45 6
56 8 8 18 15 23 15 20 0 40 -47 40 -96 0 -115 -114 -188 -167 -107 -31 47 -18
169 21 195 14 10 18 10 35 -1z m33 -113 c-9 -9 -12 -7 -12 12 0 19 3 21 12 12
9 -9 9 -15 0 -24z"/>
<path d="M1030 393 c-54 -20 -65 -74 -24 -122 26 -31 25 -35 -8 -32 -19 2 -34
-38 -25 -63 9 -23 53 -47 94 -53 50 -7 109 18 125 52 10 22 8 30 -11 56 l-22
30 25 20 c14 11 26 28 26 38 0 19 -31 51 -67 70 -22 11 -86 14 -113 4z m93
-16 c67 -29 74 -79 11 -84 -21 -2 -25 0 -14 7 12 7 12 12 2 22 -10 10 -15 9
-28 -4 -15 -15 -13 -20 30 -61 25 -25 46 -50 46 -56 0 -20 -39 -50 -74 -56
-50 -10 -111 21 -111 55 0 20 4 24 23 22 34 -5 38 23 8 59 -37 43 -34 76 7 94
41 18 60 18 100 2z"/>
<path d="M1533 388 c-31 -15 -53 -77 -60 -169 -6 -78 -6 -78 21 -89 39 -14 72
-12 86 5 10 12 15 13 20 4 10 -15 77 -14 95 1 8 7 15 29 15 49 0 58 -36 174
-60 193 -25 20 -82 23 -117 6z m87 -8 c23 -12 60 -124 60 -180 0 -35 -3 -39
-31 -45 -34 -8 -50 5 -42 34 6 22 -22 45 -43 37 -13 -5 -15 -14 -10 -42 l7
-35 -38 3 -38 3 3 66 c1 37 8 84 16 105 18 55 70 78 116 54z m-25 -189 c3 -5
1 -12 -5 -16 -5 -3 -10 1 -10 9 0 18 6 21 15 7z"/>
<path d="M1567 343 c-11 -10 -8 -61 4 -69 19 -11 31 12 24 45 -6 30 -15 38
-28 24z"/>
<path d="M460 33 c0 -28 3 -34 10 -23 5 8 7 23 4 32 -3 10 2 18 13 21 14 4 13
5 -4 6 -20 1 -23 -4 -23 -36z"/>
<path d="M543 38 c1 -25 7 -33 22 -33 15 0 20 7 21 30 1 28 1 28 -3 3 -6 -37
-30 -36 -37 2 -6 30 -6 30 -3 -2z"/>
<path d="M642 33 c1 -37 1 -37 5 -5 4 31 12 39 26 25 4 -3 2 -12 -3 -18 -7 -9
-6 -16 2 -23 10 -8 13 -3 13 21 0 26 -5 33 -22 35 -21 3 -23 -1 -21 -35z"/>
<path d="M731 34 c1 -24 3 -30 6 -16 2 12 9 20 14 17 15 -10 10 12 -6 25 -13
11 -15 7 -14 -26z"/>
<path d="M769 51 c-1 -12 -2 -26 -3 -33 -1 -6 5 -13 12 -15 8 -3 12 6 12 26 0
34 -19 53 -21 22z"/>
<path d="M833 35 c0 -22 2 -30 4 -17 2 12 2 30 0 40 -3 9 -5 -1 -4 -23z"/>
<path d="M890 55 c6 -8 9 -18 7 -23 -3 -4 -2 -14 2 -21 6 -9 10 -1 13 23 3 30
1 36 -15 36 -16 0 -17 -3 -7 -15z"/>
<path d="M963 40 c2 -25 7 -36 21 -38 22 -5 36 14 35 48 -1 22 -2 22 -8 -5 -3
-17 -13 -30 -21 -30 -8 0 -18 13 -22 30 -6 29 -6 29 -5 -5z"/>
<path d="M1060 33 c0 -28 3 -34 10 -23 5 8 7 23 4 33 -4 11 0 17 11 17 11 0
14 -6 9 -24 -3 -13 -1 -27 4 -30 6 -4 10 7 9 26 -2 26 -7 34 -24 36 -20 3 -23
-1 -23 -35z"/>
<path d="M1150 35 c0 -32 2 -35 28 -34 23 2 24 2 5 6 -27 5 -31 23 -5 23 15 1
14 2 -3 12 -19 12 -19 12 5 19 l25 7 -27 1 c-25 1 -28 -2 -28 -34z"/>
<path d="M1297 63 c-13 -12 -7 -33 8 -33 21 0 19 -18 -2 -23 -14 -4 -12 -5 5
-6 25 -1 31 26 7 35 -8 4 -15 11 -15 16 0 6 7 8 15 4 8 -3 15 -1 15 4 0 11
-23 13 -33 3z"/>
<path d="M1378 58 c5 -7 12 -24 14 -38 3 -20 5 -18 9 13 4 32 2 37 -14 37 -14
0 -17 -3 -9 -12z"/>
<path d="M1456 54 c-20 -19 -5 -54 24 -54 29 0 44 35 24 54 -19 20 -29 20 -48
0z m41 -10 c8 -21 -13 -42 -28 -27 -13 13 -5 43 11 43 6 0 13 -7 17 -16z"/>
<path d="M1550 33 c0 -28 3 -34 10 -23 5 8 7 23 4 33 -4 11 0 17 11 17 12 0
16 -6 12 -19 -2 -10 0 -25 5 -32 8 -11 9 -10 4 3 -3 10 -1 20 5 24 14 9 -9 34
-32 34 -15 0 -19 -7 -19 -37z"/>
<path d="M1649 65 c-1 -3 -1 -14 -1 -25 0 -37 2 -40 25 -39 16 1 18 2 5 6 -21
5 -23 19 -5 26 10 4 10 6 0 6 -19 1 -16 19 5 24 13 4 11 5 -5 6 -13 0 -23 -1
-24 -4z"/>
</g>
</svg>
